::General::
Complete name: Thor 2011 720p BrRip x264 1GB [Dual-Audio] English-Hindi NimitMak SilverRG
Director: Kenneth Branagh, Joss Whedon(director: post-credits scene) (uncredited)
Format: MPEG-4
File size: 1.05 GiB
Duration: 1h 54mn
Overall Bitrate: 1305 Kbps
Language: Dual Audio[English-Hindi(Dolby-Digital 5.1)]
Sub Title: Embedded + .srt (Can Be Turned Off)
Encoded date: 2012-10-07
Writing application: MeGui
Writing library: x264 core 100 r1659 57b2e56
Encoder: NimitMak
Source: BrRip YIFY (Thanks)



::IMDB INFO::
IMDB Link:http://www.imdb.com/title/tt0800369/
IMDB Rating:7.0/10
Release Date:29 April 2011 (India)
Genre: Action | Adventure | Fantasy 
YouTube



::Video::
ID: 1
Format: AVC
Format/Info: Advanced Video Codec
Format profile: High@L3.1
Format settings, CABAC: Yes
Format settings, ReFrames: 5 frames
Codec ID: V_MPEG4/ISO/AVC
Nominal Bitrate: 822 Kbps/3629 Kbps(Max)
Width: 1280 pixels
Height: 544 pixels
Display aspect ratio: 2.35:1
Frame rate: 23.976 fps
Color space: YUV
Chroma subsampling: 4:2:0
Bit depth: 8 bits
Scan type: Progressive
Writing library: x264 core 100 r1659 57b2e56



::Audio #1::
ID: 2
Format: AAC
Format/Info: Advanced Audio Codec
Format profile : HE-AAC / LC
Codec ID: 40
Duration: 1h 54mn
Bit rate mode: Variable
Bit rate : 32.0 Kbps
Maximum bit rate: 63.8 Kbps
Channel(s): 2 channels
Channel positions: Front: L R
Sampling rate: 48.0 KHz / 24.0 KHz
Compression mode: Lossy
Stream size : 26.3 MiB (2%)
Title : English - NimitMak SilverRG

::Audio #2::
ID: 3
Format : AC-3
Format/Info: Audio Coding 3
Mode extension: CM (complete main)
Codec ID: ac-3
Duration: 1h 54mn
Bit rate mode: Constant
Bit rate: 448 Kbps
Channel(s): 6 channels
Channel positions: Front: L C R, Side: L R, LFE
Sampling rate: 48.0 KHz
Bit depth: 16 bits
Compression mode: Lossy
Stream size: 368 MiB (34%)
Title : Hindi - NimitMak SilverRG

::Text #1::
ID: 4
Format: Timed text
Codec ID: tx3g
Duration: 1h 54mn
Bit rate mode: Variable
Bit rate: 47 bps
Stream size : 39.4 KiB (0%)
Title: English - NimitMak SilverRG

Screens :
 
http://www.shotpix.com/images/10632559414227913742.jpg